<svg width="32" height="32" viewBox="0 0 32 32" fill="none" xmlns="http://www.w3.org/2000/svg">
<rect width="32" height="32" fill="white"/>
<path fill-rule="evenodd" clip-rule="evenodd" d="M11.3304 6.59258C12.7367 5.89324 14.3221 5.49999 15.9993 5.49999C19.6398 5.49999 22.8476 7.35269 24.7312 10.1667H22.9993C22.0711 10.1667 21.1809 10.5354 20.5245 11.1918C19.8681 11.8482 19.4993 12.7384 19.4993 13.6667C19.4993 13.9761 19.3764 14.2728 19.1576 14.4916C18.9388 14.7104 18.6421 14.8333 18.3327 14.8333C18.0233 14.8333 17.7265 14.7104 17.5077 14.4916C17.2889 14.2728 17.166 13.9761 17.166 13.6667C17.166 12.7384 16.7973 11.8482 16.1409 11.1918C15.4845 10.5354 14.5943 10.1667 13.666 10.1667L13.6 10.1685C13.095 10.1972 12.5944 10.061 12.1735 9.78039C11.8027 9.53315 11.5114 9.18561 11.3327 8.78001V6.66666C11.3327 6.64178 11.3319 6.61707 11.3304 6.59258ZM8.99935 8.17362C7.40519 9.60043 6.24956 11.5071 5.75953 13.6667H7.83268C8.76094 13.6667 9.65118 14.0354 10.3076 14.6918C10.9639 15.3482 11.3327 16.2384 11.3327 17.1667V18.3333C11.3327 18.6427 11.4556 18.9395 11.6744 19.1583C11.8932 19.3771 12.1899 19.5 12.4993 19.5C13.4276 19.5 14.3178 19.8687 14.9742 20.5251C15.6306 21.1815 15.9993 22.0717 15.9993 23L15.9993 26.5C16.8013 26.5 17.5823 26.4101 18.3327 26.2398V21.8333C18.3327 20.9051 18.7014 20.0148 19.3578 19.3584C20.0142 18.7021 20.9044 18.3333 21.8327 18.3333H26.2392C26.4094 17.5829 26.4993 16.8019 26.4993 16C26.4993 14.7728 26.2888 13.5947 25.9019 12.5H22.9993C22.6899 12.5 22.3932 12.6229 22.1744 12.8417C21.9556 13.0605 21.8327 13.3572 21.8327 13.6667C21.8327 14.5949 21.4639 15.4852 20.8076 16.1415C20.1512 16.7979 19.2609 17.1667 18.3327 17.1667C17.4044 17.1667 16.5142 16.7979 15.8578 16.1415C15.2014 15.4852 14.8327 14.5949 14.8327 13.6667C14.8327 13.3572 14.7098 13.0605 14.491 12.8417C14.2781 12.6288 13.9915 12.5067 13.6911 12.5003C12.6951 12.548 11.7095 12.2754 10.8792 11.7218C10.0375 11.1607 9.40098 10.3413 9.06541 9.38701C9.02169 9.26266 8.99935 9.1318 8.99935 8.99999V8.17362ZM25.4079 20.6667H21.8327C21.5233 20.6667 21.2265 20.7896 21.0077 21.0084C20.7889 21.2272 20.666 21.5239 20.666 21.8333V25.4085C22.7176 24.389 24.3884 22.7182 25.4079 20.6667ZM15.1008 28.8024C15.3977 28.8229 15.6973 28.8333 15.9993 28.8333C23.087 28.8333 28.8327 23.0876 28.8327 16C28.8327 8.91234 23.087 3.16666 15.9993 3.16666C8.91169 3.16666 3.16602 8.91234 3.16602 16C3.16602 22.528 8.04011 27.9175 14.3476 28.728C14.4953 28.7956 14.6596 28.8333 14.8327 28.8333C14.925 28.8333 15.0147 28.8226 15.1008 28.8024ZM13.666 26.2398V23C13.666 22.6906 13.5431 22.3938 13.3243 22.175C13.1055 21.9562 12.8088 21.8333 12.4993 21.8333C11.5711 21.8333 10.6809 21.4646 10.0245 20.8082C9.3681 20.1518 8.99935 19.2616 8.99935 18.3333V17.1667C8.99935 16.8572 8.87643 16.5605 8.65764 16.3417C8.43885 16.1229 8.1421 16 7.83268 16L5.49935 16C5.49935 20.997 8.99004 25.1788 13.666 26.2398Z" fill="#18213A"/>
</svg>
